The Lincoln Lawyer (2011)(DivX)(DD5.1)(R5)(NL subs ext) TBS   


**************Vanaf 28 april te zien in 39 bioscopen******************
************** NOW IN THE CINEMA************** 



Verenigde Staten
Drama
118 minuten

geregisseerd door Brad Furman
met Matthew McConaughey, Marisa Tomei en John Leguizamo

Mickey Haller (Matthew McConaughey) is een advocaat die vanuit de achterbak van zijn Ford Lincoln een beroemde cliënt verdedigt. Hij krijgt gewetensbezwaren wanneer hij er achter komt dat de man die hij verdedigt verantwoordelijk is voor een misdaad waarbij eenonschuldige man veroordeeld is.

Storyline:

Mickey Haller (Matthew McConaughey) is a lawyer from the trunk of his Ford Lincoln defends a famous client. He gets conscience when he learns that the man he defends responsible for a crime involving eenonschuldige man convicted.


Info:


Source.............: Lincoln Lawyer rus r5 dvd9
Audio..............: English line: DD 5.1, Source: The Lincoln Lawyer 2011 R5 FULL LINE AC3-5 1 HQ Hive-CM8 
Subtitles.NL.......: Vertaald door Tokke, Heksje, Biteme en Suurtje 
Controle...........: Suurtje
Bewerking+Resync...: Suurtje 
AVI................: 1 CDS
Category...........: Video 
Format.............: DivX 
Source.............: R5 
Subtitle...........: Dutch extern  
Genre..............: Drama  
Language...........: English audio

Mooie R5 met een line audio die is aangevuld met het orginele geluidspoor van de russische dvd, 
al met al redelijk goed geluid, maar verwacht geen retail geluid, beeld is zoals gewoonlijk prima.

General
Complete name                    : The Lincoln Lawyer (2011)  TBS
Format                           : AVI
Format/Info                      : Audio Video Interleave
File size                        : 997 MiB
Duration                         : 1h 53mn
Overall bit rate                 : 1 227 Kbps
Writing application              : FairUse Wizard - http://fairusewizard.com
Writing library                  : The best and REALLY easy backup tool

Video
ID                               : 0
Format                           : MPEG-4 Visual
Format profile                   : Advanced Simple@L5
Format settings, BVOP            : Yes
Format settings, QPel            : No
Format settings, GMC             : No warppoints
Format settings, Matrix          : Default (H.263)
Muxing mode                      : Packed bitstream
Codec ID                         : XVID
Codec ID/Hint                    : XviD
Duration                         : 1h 53mn
Bit rate                         : 1 089 Kbps
Width                            : 640 pixels
Height                           : 352 pixels
Display aspect ratio             : 16:9
Frame rate                       : 25.000 fps
Color space                      : YUV
Chroma subsampling               : 4:2:0
Bit depth                        : 8 bits
Scan type                        : Progressive
Bits/(Pixel*Frame)               : 0.193
Stream size                      : 885 MiB (89%)
Writing library                  : XviD 1.2.0.dev47 (UTC 2006-11-01)

Audio
ID                               : 1
Format                           : MPEG Audio
Format version                   : Version 1
Format profile                   : Layer 3
Mode                             : Joint stereo
Mode extension                   : MS Stereo
Codec ID                         : 55
Codec ID/Hint                    : MP3
Duration                         : 1h 53mn
Bit rate mode                    : Constant
Bit rate                         : 128 Kbps
Channel(s)                       : 2 channels
Sampling rate                    : 48.0 KHz
Stream size                      : 104 MiB (10%)
Alignment                        : Aligned on interleaves
Interleave, duration             : 40 ms (1.00 video frame)
Interleave, preload duration     : 504 ms
Writing library                  : LAME3.97 
Encoding settings                : -m j -V 4 -q 2 -lowpass 17 -b 128
 
  
http://www.moviemeter.nl/film/72162 
http://www.imdb.com/title/tt1189340